<?xml version="1.0" encoding="UTF-8"?>
<svg xmlns="http://www.w3.org/2000/svg" version="1.1" viewBox="0 0 104.5 58">
  <defs>
    <style>
      .cls-1 {
        fill: #ff000f;
      }
    </style>
  </defs>
  <!-- Generator: Adobe Illustrator 28.6.0, SVG Export Plug-In . SVG Version: 1.2.0 Build 709)  -->
  <g>
    <g id="ABB_Logo_RGB_29px">
      <g>
        <path class="cls-1" d="M60.7,25.7c1.6-1.1,2.6-3,2.6-5.1,0-3.4-2.8-6.2-6.2-6.2h-1.7v14h8.6c-.9-1.2-2-2.1-3.4-2.8Z"/>
        <rect class="cls-1" x="45.5" y="14.5" width="9" height="14"/>
        <path class="cls-1" d="M55.5,29.5v14h1.1c5.2,0,9.4-4.2,9.4-9.4s-.5-3.3-1.2-4.6h-9.3Z"/>
        <rect class="cls-1" x="45.5" y="29.5" width="9" height="14"/>
        <rect class="cls-1" x="69.5" y="14.5" width="9" height="14"/>
        <path class="cls-1" d="M84.7,25.7c1.6-1.1,2.6-3,2.6-5.1,0-3.4-2.8-6.2-6.2-6.2h-1.7v14h8.6c-.9-1.2-2-2.1-3.4-2.8Z"/>
        <rect class="cls-1" x="69.5" y="29.5" width="9" height="14"/>
        <path class="cls-1" d="M88.8,29.5h-9.3v14h1.1c5.2,0,9.4-4.2,9.4-9.4s-.5-3.3-1.2-4.6Z"/>
        <polygon class="cls-1" points="33.2 14.5 29.5 14.5 29.5 28.5 38.2 28.5 33.2 14.5"/>
        <polygon class="cls-1" points="19.8 28.5 28.5 28.5 28.5 14.5 24.8 14.5 19.8 28.5"/>
        <polygon class="cls-1" points="14.5 43.5 21.8 43.5 23.9 37.5 28.5 37.5 28.5 29.5 19.4 29.5 14.5 43.5"/>
        <polygon class="cls-1" points="29.5 29.5 29.5 37.5 34.1 37.5 36.2 43.5 43.5 43.5 38.6 29.5 29.5 29.5"/>
      </g>
    </g>
  </g>
</svg>